<svg xmlns="http://www.w3.org/2000/svg" xmlns:xlink="http://www.w3.org/1999/xlink" width="150" zoomAndPan="magnify" viewBox="0 0 112.5 112.499997" height="150" preserveAspectRatio="xMidYMid meet" version="1.0"><defs><clipPath id="a45ba73a42"><path d="M 37.382812 30 L 56.25 30 L 56.25 63.582031 L 37.382812 63.582031 Z M 37.382812 30 " clip-rule="nonzero"/></clipPath><clipPath id="cbae16d7f7"><path d="M 56.25 44.894531 L 56.25 41.480469 L 37.382812 41.480469 L 37.382812 52.101562 L 56.25 52.101562 L 56.25 44.894531 M 37.382812 52.101562 L 56.25 63.542969 L 56.25 52.101562 L 37.382812 52.101562 M 37.382812 30.039062 L 56.25 30.039062 L 56.25 41.480469 L 37.382812 41.480469 L 37.382812 30.039062 " clip-rule="nonzero"/></clipPath><clipPath id="a8dec736e7"><path d="M 56.25 30 L 75.117188 30 L 75.117188 63.582031 L 56.25 63.582031 Z M 56.25 30 " clip-rule="nonzero"/></clipPath><clipPath id="9a906737e4"><path d="M 56.25 41.480469 L 56.25 52.101562 L 75.117188 52.101562 L 75.117188 41.480469 L 56.25 41.480469 M 56.25 30.039062 L 75.117188 30.039062 L 75.117188 41.480469 L 56.25 41.480469 L 56.25 30.039062 M 56.25 63.542969 L 75.117188 52.101562 L 56.25 52.101562 L 56.25 63.542969 " clip-rule="nonzero"/></clipPath><clipPath id="e149b8e957"><path d="M 37.382812 18.597656 L 75.117188 18.597656 L 75.117188 41.542969 L 37.382812 41.542969 Z M 37.382812 18.597656 " clip-rule="nonzero"/></clipPath><clipPath id="7108d2fe28"><path d="M 56.25 41.480469 L 37.382812 30.039062 L 56.25 18.597656 L 75.117188 30.039062 L 56.25 41.480469 " clip-rule="nonzero"/></clipPath><clipPath id="961cf08235"><path d="M 56.25 60.351562 L 75.117188 60.351562 L 75.117188 93.941406 L 56.25 93.941406 Z M 56.25 60.351562 " clip-rule="nonzero"/></clipPath><clipPath id="f1fdf3836f"><path d="M 75.117188 75.25 L 75.117188 71.839844 L 56.25 71.839844 L 56.25 82.460938 L 75.117188 82.460938 L 75.117188 75.25 M 56.25 82.460938 L 75.117188 93.902344 L 75.117188 82.460938 L 56.25 82.460938 M 56.25 60.398438 L 75.117188 60.398438 L 75.117188 71.839844 L 56.25 71.839844 L 56.25 60.398438 " clip-rule="nonzero"/></clipPath><clipPath id="2724bfc68d"><path d="M 75.117188 60.351562 L 93.988281 60.351562 L 93.988281 93.941406 L 75.117188 93.941406 Z M 75.117188 60.351562 " clip-rule="nonzero"/></clipPath><clipPath id="b3e62d1ff7"><path d="M 75.117188 71.839844 L 75.117188 82.460938 L 93.988281 82.460938 L 93.988281 71.839844 L 75.117188 71.839844 M 75.117188 60.398438 L 93.988281 60.398438 L 93.988281 71.839844 L 75.117188 71.839844 L 75.117188 60.398438 M 75.117188 93.902344 L 93.988281 82.460938 L 75.117188 82.460938 L 75.117188 93.902344 " clip-rule="nonzero"/></clipPath><clipPath id="f23b07384f"><path d="M 56.25 48.957031 L 93.988281 48.957031 L 93.988281 71.902344 L 56.25 71.902344 Z M 56.25 48.957031 " clip-rule="nonzero"/></clipPath><clipPath id="32455c3a0e"><path d="M 75.117188 71.839844 L 56.25 60.398438 L 75.117188 48.957031 L 93.988281 60.398438 L 75.117188 71.839844 " clip-rule="nonzero"/></clipPath><clipPath id="fd01e52532"><path d="M 18.511719 60.351562 L 37.382812 60.351562 L 37.382812 93.941406 L 18.511719 93.941406 Z M 18.511719 60.351562 " clip-rule="nonzero"/></clipPath><clipPath id="839a735f83"><path d="M 37.382812 75.25 L 37.382812 71.839844 L 18.511719 71.839844 L 18.511719 82.460938 L 37.382812 82.460938 L 37.382812 75.25 M 18.511719 82.460938 L 37.382812 93.902344 L 37.382812 82.460938 L 18.511719 82.460938 M 18.511719 60.398438 L 37.382812 60.398438 L 37.382812 71.839844 L 18.511719 71.839844 L 18.511719 60.398438 " clip-rule="nonzero"/></clipPath><clipPath id="626e6d82fb"><path d="M 37.382812 60.351562 L 56.25 60.351562 L 56.25 93.941406 L 37.382812 93.941406 Z M 37.382812 60.351562 " clip-rule="nonzero"/></clipPath><clipPath id="d4cc3051df"><path d="M 37.382812 71.839844 L 37.382812 82.460938 L 56.25 82.460938 L 56.25 71.839844 L 37.382812 71.839844 M 37.382812 60.398438 L 56.25 60.398438 L 56.25 71.839844 L 37.382812 71.839844 L 37.382812 60.398438 M 37.382812 93.902344 L 56.25 82.460938 L 37.382812 82.460938 L 37.382812 93.902344 " clip-rule="nonzero"/></clipPath><clipPath id="8289dbcfdb"><path d="M 18.511719 48.957031 L 56.25 48.957031 L 56.25 71.902344 L 18.511719 71.902344 Z M 18.511719 48.957031 " clip-rule="nonzero"/></clipPath><clipPath id="9093ad331d"><path d="M 37.382812 71.839844 L 18.511719 60.398438 L 37.382812 48.957031 L 56.25 60.398438 L 37.382812 71.839844 " clip-rule="nonzero"/></clipPath></defs><g clip-path="url(#a45ba73a42)"><g clip-path="url(#cbae16d7f7)"><path fill="#6f3284" d="M 37.382812 18.597656 L 75.117188 18.597656 L 75.117188 63.582031 L 37.382812 63.582031 Z M 37.382812 18.597656 " fill-opacity="1" fill-rule="nonzero"/></g></g><g clip-path="url(#a8dec736e7)"><g clip-path="url(#9a906737e4)"><path fill="#af47ab" d="M 37.382812 18.597656 L 75.117188 18.597656 L 75.117188 63.582031 L 37.382812 63.582031 Z M 37.382812 18.597656 " fill-opacity="1" fill-rule="nonzero"/></g></g><g clip-path="url(#e149b8e957)"><g clip-path="url(#7108d2fe28)"><path fill="#f487d2" d="M 37.382812 18.597656 L 75.117188 18.597656 L 75.117188 63.582031 L 37.382812 63.582031 Z M 37.382812 18.597656 " fill-opacity="1" fill-rule="nonzero"/></g></g><g clip-path="url(#961cf08235)"><g clip-path="url(#f1fdf3836f)"><path fill="#6f3284" d="M 56.25 48.957031 L 93.988281 48.957031 L 93.988281 93.941406 L 56.25 93.941406 Z M 56.25 48.957031 " fill-opacity="1" fill-rule="nonzero"/></g></g><g clip-path="url(#2724bfc68d)"><g clip-path="url(#b3e62d1ff7)"><path fill="#af47ab" d="M 56.25 48.957031 L 93.988281 48.957031 L 93.988281 93.941406 L 56.25 93.941406 Z M 56.25 48.957031 " fill-opacity="1" fill-rule="nonzero"/></g></g><g clip-path="url(#f23b07384f)"><g clip-path="url(#32455c3a0e)"><path fill="#f487d2" d="M 56.25 48.957031 L 93.988281 48.957031 L 93.988281 93.941406 L 56.25 93.941406 Z M 56.25 48.957031 " fill-opacity="1" fill-rule="nonzero"/></g></g><g clip-path="url(#fd01e52532)"><g clip-path="url(#839a735f83)"><path fill="#6f3284" d="M 18.511719 48.957031 L 56.25 48.957031 L 56.25 93.941406 L 18.511719 93.941406 Z M 18.511719 48.957031 " fill-opacity="1" fill-rule="nonzero"/></g></g><g clip-path="url(#626e6d82fb)"><g clip-path="url(#d4cc3051df)"><path fill="#af47ab" d="M 18.511719 48.957031 L 56.25 48.957031 L 56.25 93.941406 L 18.511719 93.941406 Z M 18.511719 48.957031 " fill-opacity="1" fill-rule="nonzero"/></g></g><g clip-path="url(#8289dbcfdb)"><g clip-path="url(#9093ad331d)"><path fill="#f487d2" d="M 18.511719 48.957031 L 56.25 48.957031 L 56.25 93.941406 L 18.511719 93.941406 Z M 18.511719 48.957031 " fill-opacity="1" fill-rule="nonzero"/></g></g></svg>